<svg xmlns="http://www.w3.org/2000/svg" width="600.118" height="750.118" viewBox="0 0 600.118 750.118">
  <g id="graphic-design" transform="translate(-964.431 -157)">
    <rect id="Rectangle_2" data-name="Rectangle 2" width="150" height="150" rx="20" transform="matrix(0.839, -0.545, 0.545, 0.839, 1149.556, 238.696)" fill="#5b5a5a" opacity="0.44"/>
    <rect id="Rectangle_6" data-name="Rectangle 6" width="150" height="150" rx="20" transform="matrix(0.839, -0.545, 0.545, 0.839, 1357.052, 282.801)" fill="#da88e4"/>
    <rect id="Rectangle_7" data-name="Rectangle 7" width="150" height="150" rx="20" transform="matrix(0.839, -0.545, 0.545, 0.839, 1312.948, 490.297)" fill="#e1e0e3"/>
    <rect id="Rectangle_12" data-name="Rectangle 12" width="150" height="150" rx="20" transform="translate(1290.662 677.305) rotate(40)" fill="#93f9e8" opacity="0.41"/>
    <rect id="Rectangle_5" data-name="Rectangle 5" width="150" height="150" rx="20" transform="matrix(0.839, -0.545, 0.545, 0.839, 1105.451, 446.192)" fill="#fff"/>
    <rect id="Rectangle_10" data-name="Rectangle 10" width="150" height="150" rx="20" transform="translate(1079.338 695.793) rotate(40)" fill="#fff"/>
    <rect id="Rectangle_8" data-name="Rectangle 8" width="150" height="150" rx="20" transform="translate(1060.849 484.468) rotate(40)" fill="#d259f5"/>
    <rect id="Rectangle_11" data-name="Rectangle 11" width="150" height="150" rx="20" transform="translate(1272.174 465.98) rotate(40)" fill="#d259f5"/>
    <circle id="Ellipse_2" data-name="Ellipse 2" cx="75" cy="75" r="75" transform="matrix(0.839, -0.545, 0.545, 0.839, 1231.252, 364.496)" fill="#ff64cb"/>
    <circle id="Ellipse_3" data-name="Ellipse 3" cx="75" cy="75" r="75" transform="translate(1175.756 580.886) rotate(40)" fill="#00f7ff"/>
  </g>
</svg>
