<svg xmlns="http://www.w3.org/2000/svg" xmlns:xlink="http://www.w3.org/1999/xlink" viewBox="0 0 40 48.44"><defs><style>.cls-1{fill:url(#linear-gradient);}</style><linearGradient id="linear-gradient" y1="24.22" x2="40" y2="24.22" gradientUnits="userSpaceOnUse"><stop offset="0" stop-color="#9926f0"/><stop offset="0.15" stop-color="#a225ee"/><stop offset="0.4" stop-color="#bc24e8"/><stop offset="0.57" stop-color="#d122e3"/><stop offset="0.87" stop-color="#d122e3"/><stop offset="0.99" stop-color="#d122e3"/></linearGradient></defs><g id="Layer_2" data-name="Layer 2"><g id="Layer_1-2" data-name="Layer 1"><path class="cls-1" d="M21.25,0H.06V20.93H19.15c4,0,7.33-2.63,7.33-5.88s-3.29-5.88-7.33-5.88H10.91v7.66H5.62V4.1H21.25c7.52,0,13.64,4.91,13.64,11S28.77,26,21.25,26H16.48V23.53l-5.57-2.6V26H.06V44.42H0v4H16.48V33.66L10.91,30.1V44.42H5.62V30.1H21.25c10.34,0,18.75-6.75,18.75-15S31.59,0,21.25,0ZM16.48,13.27h2.67a2,2,0,0,1,2.21,1.78,2,2,0,0,1-2.21,1.78H16.48Z"/></g></g></svg>