<svg xmlns="http://www.w3.org/2000/svg" width="38" height="38" viewBox="0 0 38 38">
  <g id="behance-logo" transform="translate(-12 -12)">
    <path id="Path_124" data-name="Path 124" d="M15.455,12A3.453,3.453,0,0,0,12,15.455V46.545A3.453,3.453,0,0,0,15.455,50H46.545A3.453,3.453,0,0,0,50,46.545V15.455A3.453,3.453,0,0,0,46.545,12ZM35.318,24.091h4.417a.864.864,0,0,1,0,1.727H35.318a.864.864,0,1,1,0-1.727ZM20.5,24.757H25.31c2.838,0,4.534,1.388,4.534,3.648a3.171,3.171,0,0,1-2.649,3.128v.182A3.476,3.476,0,0,1,30.541,35.2c0,2.564-1.936,4.19-5.06,4.19H20.5a1.589,1.589,0,0,1-1.59-1.59V26.344a1.59,1.59,0,0,1,1.59-1.59ZM21.972,27.1V30.82h2.3c1.655,0,2.557-.677,2.557-1.853s-.839-1.871-2.3-1.871Zm15.874.864c3.3,0,5.243,2.1,5.243,5.652v.9H35.413v.153a2.479,2.479,0,0,0,2.557,2.7,2.255,2.255,0,0,0,2.281-1.154H43c-.448,2.11-2.375,3.428-5.114,3.428-3.41,0-5.416-2.152-5.416-5.782S34.518,27.959,37.846,27.959Zm.011,2.265a2.385,2.385,0,0,0-2.433,2.4H40.19A2.261,2.261,0,0,0,37.857,30.224ZM21.972,32.891v4.161H24.7c1.763,0,2.719-.744,2.719-2.112,0-1.34-.985-2.049-2.791-2.049Zm0,0" transform="translate(0 0)" fill="#fff"/>
  </g>
</svg>
