<svg xmlns="http://www.w3.org/2000/svg" width="39.118" height="38" viewBox="0 0 39.118 38">
  <g id="github-logo" transform="translate(-8.161 -8.122)">
    <path id="Path_123" data-name="Path 123" d="M25.525,8.258a19.529,19.529,0,0,0-4.9,37.629.9.9,0,0,0,1.175-.98V41.772a8.129,8.129,0,0,1-1.765.2,4.228,4.228,0,0,1-4.115-3.723,4.057,4.057,0,0,0-1.175-1.96c-.59-.2-.785-.2-.785-.392,0-.392.588-.392.785-.392,1.175,0,2.155,1.372,2.547,1.96a3.572,3.572,0,0,0,2.743,1.96,3.9,3.9,0,0,0,1.765-.392,4.967,4.967,0,0,1,1.96-3.527c-4.507-.98-7.839-3.527-7.839-7.839a9.237,9.237,0,0,1,2.352-5.88,7.247,7.247,0,0,1-.392-2.745,5.786,5.786,0,0,1,.392-2.547.625.625,0,0,1,.588-.588h.2a9.314,9.314,0,0,1,4.7,2.547,13.368,13.368,0,0,1,7.839,0A9.721,9.721,0,0,1,36.5,15.9h.2c.392,0,.59.2.785.588v2.547a6.494,6.494,0,0,1-.392,2.745,8.826,8.826,0,0,1,2.352,5.88c0,4.312-3.332,6.859-7.839,7.839a6.047,6.047,0,0,1,1.96,4.507v5.1a1.069,1.069,0,0,0,1.372.98A19.676,19.676,0,0,0,25.525,8.258Zm0,0" fill="#fff"/>
  </g>
</svg>
